<svg width="38" height="38" viewBox="0 0 38 38" fill="none" xmlns="http://www.w3.org/2000/svg">
<rect width="38" height="38" rx="19" fill="white"/>
<path d="M19 11.6875C14.9615 11.6875 11.6875 14.9615 11.6875 19C11.6875 22.4529 14.0815 25.345 17.2998 26.1117C17.1333 26.072 16.9683 26.0276 16.8063 25.977V24.3016C16.8063 24.3016 16.532 24.393 16.1664 24.393C15.1435 24.393 14.7185 23.4803 14.6125 23.0219C14.5481 22.7426 14.3799 22.4779 14.1993 22.3162C13.9836 22.1238 13.8827 22.1233 13.8813 22.0575C13.8784 21.9194 14.0663 21.925 14.1555 21.925C14.6125 21.925 14.959 22.4113 15.1199 22.6627C15.5184 23.2834 15.9462 23.3875 16.1664 23.3875C16.4406 23.3875 16.6774 23.3464 16.8406 23.2677C16.9159 22.7367 17.1522 22.2636 17.5375 21.925C15.8227 21.5822 14.6125 20.5986 14.6125 19C14.6125 18.1765 14.943 17.4197 15.4937 16.8085C15.4374 16.649 15.3438 16.3264 15.3438 15.8008C15.3438 15.4534 15.3679 15.0271 15.5266 14.6125C15.5266 14.6125 16.5694 14.6198 17.553 15.5513C18.0069 15.4191 18.4926 15.3438 19 15.3438C19.5074 15.3438 19.9931 15.4191 20.447 15.5513C21.4306 14.6198 22.4734 14.6125 22.4734 14.6125C22.6329 15.0271 22.6562 15.4534 22.6562 15.8008C22.6562 16.3675 22.5809 16.698 22.5347 16.8406C23.0686 17.4461 23.3875 18.1911 23.3875 19C23.3875 20.5986 22.1773 21.5822 20.4625 21.925C20.9204 22.3272 21.1937 22.913 21.1937 23.5703V25.977C21.0317 26.0279 20.8669 26.072 20.7002 26.1117C23.9185 25.345 26.3125 22.4529 26.3125 19C26.3125 14.9615 23.0385 11.6875 19 11.6875ZM19.5099 26.2928C19.3414 26.3046 19.1716 26.3125 19 26.3125C19.1716 26.3125 19.3412 26.3043 19.5099 26.2928ZM19 26.3125C18.8284 26.3125 18.6586 26.3046 18.4901 26.2928C18.6588 26.3043 18.8284 26.3125 19 26.3125ZM18.3779 26.2844C18.0356 26.2554 17.6998 26.2031 17.3727 26.1286C17.7001 26.2028 18.0356 26.2554 18.3779 26.2844Z" fill="black"/>
</svg>
